PathFileType	4	(X/Y/Z)	/Users/itak/Documents/Research/Walk-IL/dataset/trc/00231_00009.trc
DataRate	CameraRate	NumFrames	NumMarkers	Units	OrigDataRate	OrigDataStartFrame	OrigNumFrames
100.000000	100.000000	4	53	mm	100.000000	0	833
Frame#	Time	RPSI			LPSI			L3			STRN			T10			C7			CLAV			RBAK			LBAK			LSHO			LUPA			LAEL			LAOL			LWTS			LWPS			LFRA			LIFD			LHPS			LHTS			RSHO			RUPA			RAEL			RAOL			RWTS			RWPS			RFRA			RIFD			RHTS			RHPS			RBHD			LFHD			RFHD			LBHD			LHIP			RHIP			RASI			LASI			LKNE			LTHI			LANK			LTIP			LTOE			LMT1			LMT5			LHEE			RKNE			RTHI			RANK			RTIP			RTOE			RMT1			RMT5			RHEE			
		X1	Y1	Z1	X2	Y2	Z2	X3	Y3	Z3	X4	Y4	Z4	X5	Y5	Z5	X6	Y6	Z6	X7	Y7	Z7	X8	Y8	Z8	X9	Y9	Z9	X10	Y10	Z10	X11	Y11	Z11	X12	Y12	Z12	X13	Y13	Z13	X14	Y14	Z14	X15	Y15	Z15	X16	Y16	Z16	X17	Y17	Z17	X18	Y18	Z18	X19	Y19	Z19	X20	Y20	Z20	X21	Y21	Z21	X22	Y22	Z22	X23	Y23	Z23	X24	Y24	Z24	X25	Y25	Z25	X26	Y26	Z26	X27	Y27	Z27	X28	Y28	Z28	X29	Y29	Z29	X30	Y30	Z30	X31	Y31	Z31	X32	Y32	Z32	X33	Y33	Z33	X34	Y34	Z34	X35	Y35	Z35	X36	Y36	Z36	X37	Y37	Z37	X38	Y38	Z38	X39	Y39	Z39	X40	Y40	Z40	X41	Y41	Z41	X42	Y42	Z42	X43	Y43	Z43	X44	Y44	Z44	X45	Y45	Z45	X46	Y46	Z46	X47	Y47	Z47	X48	Y48	Z48	X49	Y49	Z49	X50	Y50	Z50	X51	Y51	Z51	X52	Y52	Z52	X53	Y53	Z53	

1	0	-29.57729339599609	1050.656005859375	867.6585083007812	-21.92616081237793	1053.526489257812	747.5948486328125	-30.52933120727539	1131.230712890625	792.724853515625	215.0155181884766	1314.00537109375	797.8383178710938	-36.88187408447266	1260.083984375	799.8388671875	28.40459442138672	1520.527954101562	798.7695922851562	189.4775238037109	1431.460693359375	800.2645874023438	-52.48599243164062	1381.928344726562	870.2210083007812	7.526196002960205	1483.133422851562	688.1364135742188	96.2159423828125	1480.7744140625	631.6508178710938	59.19071960449219	1364.17333984375	553.0650634765625	60.38964462280273	1153.84423828125	524.0784301757812	-12.01742458343506	1142.7744140625	572.685302734375	122.378044128418	907.5538330078125	569.786376953125	94.09652709960938	899.1280517578125	490.7099914550781	70.98565673828125	1046.049682617188	506.804443359375	94.4940185546875	714.2352905273438	551.3364868164062	95.53218078613281	808.844482421875	490.62158203125	138.0648345947266	802.7301635742188	543.4680786132812	83.14340209960938	1475.16552734375	967.6019287109375	63.88352203369141	1409.928100585938	1034.389282226562	38.39037322998047	1131.198974609375	1077.814208984375	3.85378098487854	1123.021118164062	989.369140625	172.9135437011719	914.9901123046875	1041.59814453125	119.6467056274414	902.2326049804688	1105.930786132812	63.96247100830078	1062.903198242188	1092.260986328125	185.7182159423828	722.6901245117188	1039.467163085938	212.0902862548828	794.7224731445312	1060.858642578125	158.7073669433594	795.4026489257812	1109.502563476562	94.13971710205078	1683.950317382812	859.8555297851562	282.3828125	1699.705200195312	732.4362182617188	297.7941589355469	1697.8193359375	831.0015258789062	117.9725570678711	1686.29931640625	720.9785766601562	84.77530670166016	989.2225341796875	611.9503173828125	62.45452117919922	1009.587158203125	978.5632934570312	161.1495513916016	1051.379150390625	946.5388793945312	182.286865234375	1031.6806640625	666.4041748046875	118.23388671875	504.0348205566406	670.9613037109375	116.6845245361328	647.5203247070312	635.4654541015625	21.93256568908691	36.25611114501953	691.0512084960938	64.46433258056641	281.3214416503906	670.352783203125	234.4193878173828	41.77585220336914	758.7243041992188	145.371337890625	10.74270057678223	822.4028930664062	151.6617126464844	36.46747970581055	681.1781616210938	-42.7340087890625	42.27810668945312	740.1378784179688	105.1700973510742	517.9041748046875	948.21044921875	121.3759155273438	785.9286499023438	991.0081176757812	9.636369705200195	36.96934509277344	927.94287109375	107.5351638793945	398.6350402832031	931.5379028320312	222.0704803466797	42.55462646484375	892.0536499023438	185.6861724853516	64.60041809082031	822.8306884765625	117.5533752441406	36.93756484985352	957.6875610351562	-51.56727600097656	33.58631134033203	868.388671875	
2	0.01	-29.61071968078613	1050.633422851562	867.6365966796875	-21.98175048828125	1053.525146484375	747.6021118164062	-30.57174491882324	1131.246337890625	792.7115478515625	215.0082550048828	1313.990478515625	797.7528076171875	-36.88340377807617	1260.122802734375	799.8868408203125	28.41909217834473	1520.537841796875	798.8043212890625	189.4654541015625	1431.451171875	800.2105102539062	-52.46879959106445	1381.929565429688	870.2642211914062	7.461980819702148	1483.171997070312	688.18310546875	96.1396484375	1480.811157226562	631.64990234375	59.05797958374023	1364.261474609375	553.0078125	60.38321304321289	1153.95654296875	523.8740844726562	-12.00725269317627	1142.833740234375	572.5335083007812	122.5559768676758	907.6611938476562	569.2305908203125	94.07640838623047	899.3101196289062	490.1718444824219	70.94597625732422	1046.198974609375	506.4644470214844	94.71829223632812	714.353271484375	550.583740234375	95.55322265625	809.0339965820312	489.9660034179688	138.3132781982422	802.879638671875	542.8028564453125	83.27268218994141	1475.1240234375	967.5977172851562	64.01682281494141	1409.890625	1034.37109375	38.48336029052734	1131.146362304688	1077.774658203125	3.9178147315979	1122.99072265625	989.3472900390625	172.8349456787109	914.815673828125	1041.509399414062	119.6260452270508	902.1448364257812	1105.87744140625	64.02046203613281	1062.840698242188	1092.204345703125	185.5388946533203	722.5086059570312	1039.406005859375	211.8656921386719	794.5355224609375	1060.75537109375	158.6259307861328	795.281494140625	1109.438842773438	94.1671142578125	1683.914306640625	859.8320922851562	282.4154968261719	1699.70947265625	732.47265625	297.8072814941406	1697.791381835938	831.0482788085938	118.0065078735352	1686.301513671875	720.9674072265625	84.69284057617188	989.2387084960938	611.9176635742188	62.457763671875	1009.574829101562	978.5306396484375	161.1480407714844	1051.371704101562	946.47607421875	182.2035980224609	1031.702514648438	666.3350219726562	118.1623458862305	504.0328674316406	670.926025390625	116.6126098632812	647.52197265625	635.4286499023438	21.93245124816895	36.25057220458984	691.0447387695312	64.42161560058594	281.3245544433594	670.3302612304688	234.4152679443359	41.78255081176758	758.7222900390625	145.3683319091797	10.73579788208008	822.4098510742188	151.6670227050781	36.4681282043457	681.1774291992188	-42.72030639648438	42.22169876098633	740.0973510742188	105.187614440918	517.9161987304688	948.1883544921875	121.3580017089844	785.9207153320312	990.9714965820312	9.650224685668945	36.97854232788086	927.951416015625	107.5767211914062	398.6242065429688	931.520751953125	222.0739288330078	42.55784606933594	892.0469970703125	185.6891021728516	64.60618591308594	822.8258056640625	117.557991027832	36.94089889526367	957.6988525390625	-51.57451248168945	33.60184860229492	868.3860473632812	
3	0.02	-29.64468002319336	1050.600952148438	867.6150512695312	-22.05922889709473	1053.522094726562	747.6119995117188	-30.62309074401855	1131.264526367188	792.7047729492188	214.9902954101562	1313.970947265625	797.6494750976562	-36.90297698974609	1260.144165039062	799.927978515625	28.43351173400879	1520.548461914062	798.8421020507812	189.4456634521484	1431.436645507812	800.1427001953125	-52.44952774047852	1381.930908203125	870.3155517578125	7.378983020782471	1483.214233398438	688.2374267578125	96.04291534423828	1480.8515625	631.6478881835938	58.90024948120117	1364.362060546875	552.9407958984375	60.39247131347656	1154.089599609375	523.6172485351562	-11.95662117004395	1142.878662109375	572.3466186523438	122.8513259887695	907.8045043945312	568.5771484375	94.1558837890625	899.5302734375	489.5428466796875	70.94606781005859	1046.375732421875	506.0527038574219	95.16654205322266	714.5078735351562	549.7183227539062	95.72515869140625	809.2649536132812	489.2079772949219	138.7192840576172	803.0833740234375	542.0157470703125	83.42727661132812	1475.074462890625	967.5899658203125	64.16798400878906	1409.84716796875	1034.350341796875	38.59021759033203	1131.082153320312	1077.72509765625	3.995449542999268	1122.955078125	989.318603515625	172.7439727783203	914.6074829101562	1041.3896484375	119.61328125	902.0369873046875	1105.800659179688	64.1025390625	1062.76318359375	1092.128662109375	185.3275909423828	722.2967529296875	1039.312133789062	211.6063690185547	794.3118286132812	1060.614624023438	158.5265502929688	795.136474609375	1109.345581054688	94.19670104980469	1683.872924804688	859.803955078125	282.4546813964844	1699.712036132812	732.51904296875	297.8222351074219	1697.749633789062	831.111572265625	118.0478363037109	1686.305419921875	720.9548950195312	84.58438110351562	989.2579956054688	611.8784790039062	62.47303771972656	1009.553100585938	978.4876708984375	161.1457366943359	1051.35888671875	946.3985595703125	182.0966339111328	1031.73193359375	666.2493896484375	118.0656433105469	504.0317687988281	670.8807983398438	116.511100769043	647.524658203125	635.3804321289062	21.93295478820801	36.24510192871094	691.03759765625	64.36154174804688	281.3291625976562	670.3021240234375	234.4092864990234	41.7905387878418	758.7198486328125	145.3666534423828	10.72980117797852	822.4180908203125	151.6721954345703	36.46932601928711	681.1763305664062	-42.70846176147461	42.16767883300781	740.059326171875	105.2112426757812	517.9306640625	948.15576171875	121.3368072509766	785.9066162109375	990.9208374023438	9.663200378417969	36.98790740966797	927.9608154296875	107.6357803344727	398.6093444824219	931.49658203125	222.0788421630859	42.56052398681641	892.0405883789062	185.69384765625	64.61380004882812	822.8194580078125	117.5620803833008	36.944091796875	957.7095336914062	-51.58542251586914	33.61995697021484	868.3819580078125	
4	0.03	-29.67427825927734	1050.557983398438	867.5960083007812	-22.15945053100586	1053.517211914062	747.6248779296875	-30.67924880981445	1131.28369140625	792.7102661132812	214.9584808349609	1313.947265625	797.5335083007812	-36.94545745849609	1260.141967773438	799.9576416015625	28.44524765014648	1520.55859375	798.87841796875	189.4173278808594	1431.416748046875	800.0639038085938	-52.42948913574219	1381.932373046875	870.3712768554688	7.279158115386963	1483.255615234375	688.2952270507812	95.92994689941406	1480.891357421875	631.6444091796875	58.72945404052734	1364.465576171875	552.8689575195312	60.4274787902832	1154.233032226562	523.3190307617188	-11.85117340087891	1142.893188476562	572.1324462890625	123.2902145385742	907.98388671875	567.8760375976562	94.38423919677734	899.7747192382812	488.8730163574219	71.01280212402344	1046.566772460938	505.5946350097656	95.89724731445312	714.6937866210938	548.81591796875	96.11029815673828	809.5227661132812	488.4118347167969	139.3194732666016	803.3424072265625	541.1683959960938	83.59703826904297	1475.020141601562	967.5775756835938	64.32327270507812	1409.800903320312	1034.328491210938	38.7035026550293	1131.009643554688	1077.66748046875	4.082688331604004	1122.916259765625	989.28369140625	172.6478271484375	914.3800048828125	1041.239379882812	119.6142578125	901.9149169921875	1105.698608398438	64.21086883544922	1062.674072265625	1092.035278320312	185.103515625	722.0719604492188	1039.180908203125	211.3348388671875	794.067626953125	1060.43701171875	158.4167785644531	794.9765014648438	1109.2197265625	94.22525787353516	1683.8291015625	859.7723999023438	282.4979858398438	1699.711303710938	732.5738525390625	297.8378601074219	1697.693359375	831.1904907226562	118.0948181152344	1686.311645507812	720.942138671875	84.45139312744141	989.2791137695312	611.8351440429688	62.50575637817383	1009.519836425781	978.4360961914062	161.1430969238281	1051.339599609375	946.3098754882812	181.9688262939453	1031.768432617188	666.1512451171875	117.9440155029297	504.03271484375	670.827392578125	116.3796844482422	647.529052734375	635.3218383789062	21.93384170532227	36.24038314819336	691.0311279296875	64.28422546386719	281.33544921875	670.2696533203125	234.4020843505859	41.79930877685547	758.7167358398438	145.366943359375	10.72596168518066	822.4268798828125	151.6762084960938	36.47084045410156	681.1747436523438	-42.7000617980957	42.12224578857422	740.0286254882812	105.2414627075195	517.9473266601562	948.1121826171875	121.3168258666992	785.885009765625	990.8551025390625	9.672787666320801	36.99575805664062	927.969970703125	107.7121276855469	398.5907287597656	931.4647216796875	222.0849761962891	42.56228256225586	892.0348510742188	185.6999206542969	64.62305450439453	822.8118896484375	117.565544128418	36.94709396362305	957.7178955078125	-51.59929275512695	33.63875579833984	868.3765258789062	
